<svg id="visual" viewBox="0 0 900 600" width="900" height="600" xmlns="http://www.w3.org/2000/svg" xmlns:xlink="http://www.w3.org/1999/xlink" version="1.1"><rect x="0" y="0" width="900" height="600" fill="#080808"></rect><defs><linearGradient id="grad1_0" x1="33.3%" y1="100%" x2="100%" y2="0%"><stop offset="20%" stop-color="#bb1b1b" stop-opacity="1"></stop><stop offset="80%" stop-color="#bb1b1b" stop-opacity="1"></stop></linearGradient></defs><defs><linearGradient id="grad1_1" x1="33.3%" y1="100%" x2="100%" y2="0%"><stop offset="20%" stop-color="#bb1b1b" stop-opacity="1"></stop><stop offset="80%" stop-color="#a01e19" stop-opacity="1"></stop></linearGradient></defs><defs><linearGradient id="grad1_2" x1="33.3%" y1="100%" x2="100%" y2="0%"><stop offset="20%" stop-color="#851e18" stop-opacity="1"></stop><stop offset="80%" stop-color="#a01e19" stop-opacity="1"></stop></linearGradient></defs><defs><linearGradient id="grad1_3" x1="33.3%" y1="100%" x2="100%" y2="0%"><stop offset="20%" stop-color="#851e18" stop-opacity="1"></stop><stop offset="80%" stop-color="#6b1d16" stop-opacity="1"></stop></linearGradient></defs><defs><linearGradient id="grad1_4" x1="33.3%" y1="100%" x2="100%" y2="0%"><stop offset="20%" stop-color="#531b14" stop-opacity="1"></stop><stop offset="80%" stop-color="#6b1d16" stop-opacity="1"></stop></linearGradient></defs><defs><linearGradient id="grad1_5" x1="33.3%" y1="100%" x2="100%" y2="0%"><stop offset="20%" stop-color="#531b14" stop-opacity="1"></stop><stop offset="80%" stop-color="#3b1711" stop-opacity="1"></stop></linearGradient></defs><defs><linearGradient id="grad1_6" x1="33.3%" y1="100%" x2="100%" y2="0%"><stop offset="20%" stop-color="#24120d" stop-opacity="1"></stop><stop offset="80%" stop-color="#3b1711" stop-opacity="1"></stop></linearGradient></defs><defs><linearGradient id="grad1_7" x1="33.3%" y1="100%" x2="100%" y2="0%"><stop offset="20%" stop-color="#24120d" stop-opacity="1"></stop><stop offset="80%" stop-color="#080808" stop-opacity="1"></stop></linearGradient></defs><defs><linearGradient id="grad2_0" x1="0%" y1="100%" x2="66.7%" y2="0%"><stop offset="20%" stop-color="#bb1b1b" stop-opacity="1"></stop><stop offset="80%" stop-color="#bb1b1b" stop-opacity="1"></stop></linearGradient></defs><defs><linearGradient id="grad2_1" x1="0%" y1="100%" x2="66.7%" y2="0%"><stop offset="20%" stop-color="#a01e19" stop-opacity="1"></stop><stop offset="80%" stop-color="#bb1b1b" stop-opacity="1"></stop></linearGradient></defs><defs><linearGradient id="grad2_2" x1="0%" y1="100%" x2="66.7%" y2="0%"><stop offset="20%" stop-color="#a01e19" stop-opacity="1"></stop><stop offset="80%" stop-color="#851e18" stop-opacity="1"></stop></linearGradient></defs><defs><linearGradient id="grad2_3" x1="0%" y1="100%" x2="66.7%" y2="0%"><stop offset="20%" stop-color="#6b1d16" stop-opacity="1"></stop><stop offset="80%" stop-color="#851e18" stop-opacity="1"></stop></linearGradient></defs><defs><linearGradient id="grad2_4" x1="0%" y1="100%" x2="66.7%" y2="0%"><stop offset="20%" stop-color="#6b1d16" stop-opacity="1"></stop><stop offset="80%" stop-color="#531b14" stop-opacity="1"></stop></linearGradient></defs><defs><linearGradient id="grad2_5" x1="0%" y1="100%" x2="66.7%" y2="0%"><stop offset="20%" stop-color="#3b1711" stop-opacity="1"></stop><stop offset="80%" stop-color="#531b14" stop-opacity="1"></stop></linearGradient></defs><defs><linearGradient id="grad2_6" x1="0%" y1="100%" x2="66.7%" y2="0%"><stop offset="20%" stop-color="#3b1711" stop-opacity="1"></stop><stop offset="80%" stop-color="#24120d" stop-opacity="1"></stop></linearGradient></defs><defs><linearGradient id="grad2_7" x1="0%" y1="100%" x2="66.7%" y2="0%"><stop offset="20%" stop-color="#080808" stop-opacity="1"></stop><stop offset="80%" stop-color="#24120d" stop-opacity="1"></stop></linearGradient></defs><g transform="translate(900, 600)"><path d="M-432.7 0C-428.7 -62.7 -424.8 -125.3 -389 -161.1C-353.1 -196.9 -285.3 -205.9 -247.5 -247.5C-209.7 -289.1 -201.8 -363.4 -165.6 -399.7C-129.3 -436 -64.7 -434.4 0 -432.7L0 0Z" fill="#190e0b"></path><path d="M-378.6 0C-375.1 -54.8 -371.7 -109.6 -340.3 -141C-309 -172.3 -249.6 -180.1 -216.6 -216.6C-183.5 -253 -176.6 -318 -144.9 -349.8C-113.2 -381.5 -56.6 -380.1 0 -378.6L0 0Z" fill="#2f150f"></path><path d="M-324.5 0C-321.6 -47 -318.6 -94 -291.7 -120.8C-264.8 -147.7 -214 -154.4 -185.6 -185.6C-157.3 -216.8 -151.4 -272.6 -124.2 -299.8C-97 -327 -48.5 -325.8 0 -324.5L0 0Z" fill="#471912"></path><path d="M-270.4 0C-268 -39.2 -265.5 -78.3 -243.1 -100.7C-220.7 -123.1 -178.3 -128.7 -154.7 -154.7C-131 -180.7 -126.1 -227.1 -103.5 -249.8C-80.8 -272.5 -40.4 -271.5 0 -270.4L0 0Z" fill="#5f1c15"></path><path d="M-216.3 0C-214.4 -31.3 -212.4 -62.7 -194.5 -80.6C-176.5 -98.5 -142.7 -102.9 -123.7 -123.7C-104.8 -144.6 -100.9 -181.7 -82.8 -199.9C-64.7 -218 -32.3 -217.2 0 -216.3L0 0Z" fill="#781e17"></path><path d="M-162.2 0C-160.8 -23.5 -159.3 -47 -145.9 -60.4C-132.4 -73.8 -107 -77.2 -92.8 -92.8C-78.6 -108.4 -75.7 -136.3 -62.1 -149.9C-48.5 -163.5 -24.2 -162.9 0 -162.2L0 0Z" fill="#921e18"></path><path d="M-108.2 0C-107.2 -15.7 -106.2 -31.3 -97.2 -40.3C-88.3 -49.2 -71.3 -51.5 -61.9 -61.9C-52.4 -72.3 -50.5 -90.9 -41.4 -99.9C-32.3 -109 -16.2 -108.6 0 -108.2L0 0Z" fill="#ad1d1a"></path><path d="M-54.1 0C-53.6 -7.8 -53.1 -15.7 -48.6 -20.1C-44.1 -24.6 -35.7 -25.7 -30.9 -30.9C-26.2 -36.1 -25.2 -45.4 -20.7 -50C-16.2 -54.5 -8.1 -54.3 0 -54.1L0 0Z" fill="#bb1b1b"></path></g><g transform="translate(0, 0)"><path d="M432.7 0C426 55.6 419.3 111.3 399.7 165.6C380.1 219.9 347.6 272.9 302.6 302.6C257.7 332.4 200.2 338.8 147.7 356.6C95.2 374.4 47.6 403.5 0 432.7L0 0Z" fill="#190e0b"></path><path d="M378.6 0C372.7 48.7 366.9 97.3 349.8 144.9C332.6 192.4 304.2 238.8 264.8 264.8C225.5 290.8 175.2 296.5 129.3 312C83.3 327.6 41.6 353.1 0 378.6L0 0Z" fill="#2f150f"></path><path d="M324.5 0C319.5 41.7 314.5 83.4 299.8 124.2C285.1 164.9 260.7 204.7 227 227C193.2 249.3 150.2 254.1 110.8 267.5C71.4 280.8 35.7 302.7 0 324.5L0 0Z" fill="#471912"></path><path d="M270.4 0C266.2 34.8 262.1 69.5 249.8 103.5C237.6 137.4 217.3 170.6 189.2 189.2C161 207.7 125.1 211.8 92.3 222.9C59.5 234 29.7 252.2 0 270.4L0 0Z" fill="#5f1c15"></path><path d="M216.3 0C213 27.8 209.7 55.6 199.9 82.8C190.1 109.9 173.8 136.5 151.3 151.3C128.8 166.2 100.1 169.4 73.9 178.3C47.6 187.2 23.8 201.8 0 216.3L0 0Z" fill="#781e17"></path><path d="M162.2 0C159.7 20.9 157.2 41.7 149.9 62.1C142.6 82.5 130.4 102.3 113.5 113.5C96.6 124.6 75.1 127.1 55.4 133.7C35.7 140.4 17.8 151.3 0 162.2L0 0Z" fill="#921e18"></path><path d="M108.2 0C106.5 13.9 104.8 27.8 99.9 41.4C95 55 86.9 68.2 75.7 75.7C64.4 83.1 50.1 84.7 36.9 89.2C23.8 93.6 11.9 100.9 0 108.2L0 0Z" fill="#ad1d1a"></path><path d="M54.1 0C53.2 7 52.4 13.9 50 20.7C47.5 27.5 43.5 34.1 37.8 37.8C32.2 41.5 25 42.4 18.5 44.6C11.9 46.8 5.9 50.4 0 54.1L0 0Z" fill="#bb1b1b"></path></g></svg>