<svg id="visual" viewBox="0 0 400 100" width="400" height="100" xmlns="http://www.w3.org/2000/svg" xmlns:xlink="http://www.w3.org/1999/xlink" version="1.1"><rect x="0" y="0" width="400" height="100" fill="#121212"></rect><path d="M0 46L2.8 49.2C5.7 52.3 11.3 58.7 17.2 64C23 69.3 29 73.7 34.8 74.5C40.7 75.3 46.3 72.7 52.2 73.5C58 74.3 64 78.7 69.8 73.3C75.7 68 81.3 53 87 50.5C92.7 48 98.3 58 104.2 60.5C110 63 116 58 121.8 54.3C127.7 50.7 133.3 48.3 139.2 47.7C145 47 151 48 156.8 48.7C162.7 49.3 168.3 49.7 174 50.5C179.7 51.3 185.3 52.7 191.2 53.3C197 54 203 54 208.8 50.3C214.7 46.7 220.3 39.3 226 36C231.7 32.7 237.3 33.3 243.2 33.7C249 34 255 34 260.8 34.3C266.7 34.7 272.3 35.3 278.2 34.7C284 34 290 32 295.8 35.8C301.7 39.7 307.3 49.3 313 57.7C318.7 66 324.3 73 330.2 67.7C336 62.3 342 44.7 347.8 35.8C353.7 27 359.3 27 365.2 27.8C371 28.7 377 30.3 382.8 29.5C388.7 28.7 394.3 25.3 397.2 23.7L400 22L400 0L397.2 0C394.3 0 388.7 0 382.8 0C377 0 371 0 365.2 0C359.3 0 353.7 0 347.8 0C342 0 336 0 330.2 0C324.3 0 318.7 0 313 0C307.3 0 301.7 0 295.8 0C290 0 284 0 278.2 0C272.3 0 266.7 0 260.8 0C255 0 249 0 243.2 0C237.3 0 231.7 0 226 0C220.3 0 214.7 0 208.8 0C203 0 197 0 191.2 0C185.3 0 179.7 0 174 0C168.3 0 162.7 0 156.8 0C151 0 145 0 139.2 0C133.3 0 127.7 0 121.8 0C116 0 110 0 104.2 0C98.3 0 92.7 0 87 0C81.3 0 75.7 0 69.8 0C64 0 58 0 52.2 0C46.3 0 40.7 0 34.8 0C29 0 23 0 17.2 0C11.3 0 5.7 0 2.8 0L0 0Z" fill="#bb1b1b"></path><path d="M0 63L2.8 64.2C5.7 65.3 11.3 67.7 17.2 63.3C23 59 29 48 34.8 48.2C40.7 48.3 46.3 59.7 52.2 63.8C58 68 64 65 69.8 58.8C75.7 52.7 81.3 43.3 87 41.3C92.7 39.3 98.3 44.7 104.2 45.5C110 46.3 116 42.7 121.8 40.5C127.7 38.3 133.3 37.7 139.2 39.5C145 41.3 151 45.7 156.8 46.5C162.7 47.3 168.3 44.7 174 47.5C179.7 50.3 185.3 58.7 191.2 59C197 59.3 203 51.7 208.8 44C214.7 36.3 220.3 28.7 226 32.2C231.7 35.7 237.3 50.3 243.2 51C249 51.7 255 38.3 260.8 32C266.7 25.7 272.3 26.3 278.2 28.8C284 31.3 290 35.7 295.8 38.3C301.7 41 307.3 42 313 43.8C318.7 45.7 324.3 48.3 330.2 47C336 45.7 342 40.3 347.8 43.2C353.7 46 359.3 57 365.2 55.8C371 54.7 377 41.3 382.8 37.2C388.7 33 394.3 38 397.2 40.5L400 43L400 0L397.2 0C394.3 0 388.7 0 382.8 0C377 0 371 0 365.2 0C359.3 0 353.7 0 347.8 0C342 0 336 0 330.2 0C324.3 0 318.7 0 313 0C307.3 0 301.7 0 295.8 0C290 0 284 0 278.2 0C272.3 0 266.7 0 260.8 0C255 0 249 0 243.2 0C237.3 0 231.7 0 226 0C220.3 0 214.7 0 208.8 0C203 0 197 0 191.2 0C185.3 0 179.7 0 174 0C168.3 0 162.7 0 156.8 0C151 0 145 0 139.2 0C133.3 0 127.7 0 121.8 0C116 0 110 0 104.2 0C98.3 0 92.7 0 87 0C81.3 0 75.7 0 69.8 0C64 0 58 0 52.2 0C46.3 0 40.7 0 34.8 0C29 0 23 0 17.2 0C11.3 0 5.7 0 2.8 0L0 0Z" fill="#aa1d1a"></path><path d="M0 55L2.8 54.8C5.7 54.7 11.3 54.3 17.2 54.7C23 55 29 56 34.8 56.8C40.7 57.7 46.3 58.3 52.2 52.3C58 46.3 64 33.7 69.8 29.8C75.7 26 81.3 31 87 34C92.7 37 98.3 38 104.2 35.7C110 33.3 116 27.7 121.8 25.2C127.7 22.7 133.3 23.3 139.2 27.7C145 32 151 40 156.8 45.2C162.7 50.3 168.3 52.7 174 48.7C179.7 44.7 185.3 34.3 191.2 32.8C197 31.3 203 38.7 208.8 42.3C214.7 46 220.3 46 226 48.8C231.7 51.7 237.3 57.3 243.2 59.7C249 62 255 61 260.8 59C266.7 57 272.3 54 278.2 50.5C284 47 290 43 295.8 39.7C301.7 36.3 307.3 33.7 313 34.7C318.7 35.7 324.3 40.3 330.2 40.5C336 40.7 342 36.3 347.8 33.2C353.7 30 359.3 28 365.2 25.8C371 23.7 377 21.3 382.8 27.8C388.7 34.3 394.3 49.7 397.2 57.3L400 65L400 0L397.2 0C394.3 0 388.7 0 382.8 0C377 0 371 0 365.2 0C359.3 0 353.7 0 347.8 0C342 0 336 0 330.2 0C324.3 0 318.7 0 313 0C307.3 0 301.7 0 295.8 0C290 0 284 0 278.2 0C272.3 0 266.7 0 260.8 0C255 0 249 0 243.2 0C237.3 0 231.7 0 226 0C220.3 0 214.7 0 208.8 0C203 0 197 0 191.2 0C185.3 0 179.7 0 174 0C168.3 0 162.7 0 156.8 0C151 0 145 0 139.2 0C133.3 0 127.7 0 121.8 0C116 0 110 0 104.2 0C98.3 0 92.7 0 87 0C81.3 0 75.7 0 69.8 0C64 0 58 0 52.2 0C46.3 0 40.7 0 34.8 0C29 0 23 0 17.2 0C11.3 0 5.7 0 2.8 0L0 0Z" fill="#981e19"></path><path d="M0 52L2.8 49C5.7 46 11.3 40 17.2 34.2C23 28.3 29 22.7 34.8 24.5C40.7 26.3 46.3 35.7 52.2 37.2C58 38.7 64 32.3 69.8 32.5C75.7 32.7 81.3 39.3 87 38.3C92.7 37.3 98.3 28.7 104.2 27.7C110 26.7 116 33.3 121.8 39.7C127.7 46 133.3 52 139.2 52.5C145 53 151 48 156.8 42C162.7 36 168.3 29 174 25.8C179.7 22.7 185.3 23.3 191.2 27.8C197 32.3 203 40.7 208.8 46.3C214.7 52 220.3 55 226 56.8C231.7 58.7 237.3 59.3 243.2 56.3C249 53.3 255 46.7 260.8 39.5C266.7 32.3 272.3 24.7 278.2 23.3C284 22 290 27 295.8 34C301.7 41 307.3 50 313 52.8C318.7 55.7 324.3 52.3 330.2 45.7C336 39 342 29 347.8 29.3C353.7 29.7 359.3 40.3 365.2 46.7C371 53 377 55 382.8 53.2C388.7 51.3 394.3 45.7 397.2 42.8L400 40L400 0L397.2 0C394.3 0 388.7 0 382.8 0C377 0 371 0 365.2 0C359.3 0 353.7 0 347.8 0C342 0 336 0 330.2 0C324.3 0 318.7 0 313 0C307.3 0 301.7 0 295.8 0C290 0 284 0 278.2 0C272.3 0 266.7 0 260.8 0C255 0 249 0 243.2 0C237.3 0 231.7 0 226 0C220.3 0 214.7 0 208.8 0C203 0 197 0 191.2 0C185.3 0 179.7 0 174 0C168.3 0 162.7 0 156.8 0C151 0 145 0 139.2 0C133.3 0 127.7 0 121.8 0C116 0 110 0 104.2 0C98.3 0 92.7 0 87 0C81.3 0 75.7 0 69.8 0C64 0 58 0 52.2 0C46.3 0 40.7 0 34.8 0C29 0 23 0 17.2 0C11.3 0 5.7 0 2.8 0L0 0Z" fill="#881e18"></path><path d="M0 37L2.8 39.3C5.7 41.7 11.3 46.3 17.2 45.8C23 45.3 29 39.7 34.8 37.5C40.7 35.3 46.3 36.7 52.2 40.7C58 44.7 64 51.3 69.8 53.7C75.7 56 81.3 54 87 49.3C92.7 44.7 98.3 37.3 104.2 31.8C110 26.3 116 22.7 121.8 25.5C127.7 28.3 133.3 37.7 139.2 40.3C145 43 151 39 156.8 34.7C162.7 30.3 168.3 25.7 174 25.3C179.7 25 185.3 29 191.2 28.5C197 28 203 23 208.8 27C214.7 31 220.3 44 226 44.2C231.7 44.3 237.3 31.7 243.2 25.5C249 19.3 255 19.7 260.8 19.5C266.7 19.3 272.3 18.7 278.2 24.7C284 30.7 290 43.3 295.8 48.2C301.7 53 307.3 50 313 43C318.7 36 324.3 25 330.2 24.5C336 24 342 34 347.8 34.3C353.7 34.7 359.3 25.3 365.2 22.3C371 19.3 377 22.7 382.8 29.2C388.7 35.7 394.3 45.3 397.2 50.2L400 55L400 0L397.2 0C394.3 0 388.7 0 382.8 0C377 0 371 0 365.2 0C359.3 0 353.7 0 347.8 0C342 0 336 0 330.2 0C324.3 0 318.7 0 313 0C307.3 0 301.7 0 295.8 0C290 0 284 0 278.2 0C272.3 0 266.7 0 260.8 0C255 0 249 0 243.2 0C237.3 0 231.7 0 226 0C220.3 0 214.7 0 208.8 0C203 0 197 0 191.2 0C185.3 0 179.7 0 174 0C168.3 0 162.7 0 156.8 0C151 0 145 0 139.2 0C133.3 0 127.7 0 121.8 0C116 0 110 0 104.2 0C98.3 0 92.7 0 87 0C81.3 0 75.7 0 69.8 0C64 0 58 0 52.2 0C46.3 0 40.7 0 34.8 0C29 0 23 0 17.2 0C11.3 0 5.7 0 2.8 0L0 0Z" fill="#771e17"></path><path d="M0 28L2.8 27.7C5.7 27.3 11.3 26.7 17.2 25.5C23 24.3 29 22.7 34.8 23.8C40.7 25 46.3 29 52.2 32.3C58 35.7 64 38.3 69.8 40.2C75.7 42 81.3 43 87 41.5C92.7 40 98.3 36 104.2 31.8C110 27.7 116 23.3 121.8 25.8C127.7 28.3 133.3 37.7 139.2 37.5C145 37.3 151 27.7 156.8 27.2C162.7 26.7 168.3 35.3 174 38C179.7 40.7 185.3 37.3 191.2 34.5C197 31.7 203 29.3 208.8 28.5C214.7 27.7 220.3 28.3 226 30.8C231.7 33.3 237.3 37.7 243.2 40.2C249 42.7 255 43.3 260.8 44.5C266.7 45.7 272.3 47.3 278.2 47C284 46.7 290 44.3 295.8 41.2C301.7 38 307.3 34 313 33.2C318.7 32.3 324.3 34.7 330.2 33.3C336 32 342 27 347.8 26.8C353.7 26.7 359.3 31.3 365.2 33.7C371 36 377 36 382.8 33.7C388.7 31.3 394.3 26.7 397.2 24.3L400 22L400 0L397.2 0C394.3 0 388.7 0 382.8 0C377 0 371 0 365.2 0C359.3 0 353.7 0 347.8 0C342 0 336 0 330.2 0C324.3 0 318.7 0 313 0C307.3 0 301.7 0 295.8 0C290 0 284 0 278.2 0C272.3 0 266.7 0 260.8 0C255 0 249 0 243.2 0C237.3 0 231.7 0 226 0C220.3 0 214.7 0 208.8 0C203 0 197 0 191.2 0C185.3 0 179.7 0 174 0C168.3 0 162.7 0 156.8 0C151 0 145 0 139.2 0C133.3 0 127.7 0 121.8 0C116 0 110 0 104.2 0C98.3 0 92.7 0 87 0C81.3 0 75.7 0 69.8 0C64 0 58 0 52.2 0C46.3 0 40.7 0 34.8 0C29 0 23 0 17.2 0C11.3 0 5.7 0 2.8 0L0 0Z" fill="#671d16"></path><path d="M0 15L2.8 16.7C5.7 18.3 11.3 21.7 17.2 21.8C23 22 29 19 34.8 21.3C40.7 23.7 46.3 31.3 52.2 35.2C58 39 64 39 69.8 34.7C75.7 30.3 81.3 21.7 87 21C92.7 20.3 98.3 27.7 104.2 28.8C110 30 116 25 121.8 24.5C127.7 24 133.3 28 139.2 28.5C145 29 151 26 156.8 25.7C162.7 25.3 168.3 27.7 174 28.8C179.7 30 185.3 30 191.2 27.8C197 25.7 203 21.3 208.8 21C214.7 20.7 220.3 24.3 226 23.8C231.7 23.3 237.3 18.7 243.2 16.8C249 15 255 16 260.8 20.2C266.7 24.3 272.3 31.7 278.2 31.5C284 31.3 290 23.7 295.8 24.2C301.7 24.7 307.3 33.3 313 38C318.7 42.7 324.3 43.3 330.2 39.7C336 36 342 28 347.8 25.3C353.7 22.7 359.3 25.3 365.2 26.2C371 27 377 26 382.8 28.5C388.7 31 394.3 37 397.2 40L400 43L400 0L397.2 0C394.3 0 388.7 0 382.8 0C377 0 371 0 365.2 0C359.3 0 353.7 0 347.8 0C342 0 336 0 330.2 0C324.3 0 318.7 0 313 0C307.3 0 301.7 0 295.8 0C290 0 284 0 278.2 0C272.3 0 266.7 0 260.8 0C255 0 249 0 243.2 0C237.3 0 231.7 0 226 0C220.3 0 214.7 0 208.8 0C203 0 197 0 191.2 0C185.3 0 179.7 0 174 0C168.3 0 162.7 0 156.8 0C151 0 145 0 139.2 0C133.3 0 127.7 0 121.8 0C116 0 110 0 104.2 0C98.3 0 92.7 0 87 0C81.3 0 75.7 0 69.8 0C64 0 58 0 52.2 0C46.3 0 40.7 0 34.8 0C29 0 23 0 17.2 0C11.3 0 5.7 0 2.8 0L0 0Z" fill="#571b14"></path><path d="M0 9L2.8 9C5.7 9 11.3 9 17.2 11.5C23 14 29 19 34.8 22.3C40.7 25.7 46.3 27.3 52.2 27.3C58 27.3 64 25.7 69.8 23.7C75.7 21.7 81.3 19.3 87 17.2C92.7 15 98.3 13 104.2 13.8C110 14.7 116 18.3 121.8 18.3C127.7 18.3 133.3 14.7 139.2 13.5C145 12.3 151 13.7 156.8 14.3C162.7 15 168.3 15 174 16.7C179.7 18.3 185.3 21.7 191.2 22.3C197 23 203 21 208.8 19.8C214.7 18.7 220.3 18.3 226 21.3C231.7 24.3 237.3 30.7 243.2 32.8C249 35 255 33 260.8 29.3C266.7 25.7 272.3 20.3 278.2 16.7C284 13 290 11 295.8 14.7C301.7 18.3 307.3 27.7 313 31.3C318.7 35 324.3 33 330.2 32C336 31 342 31 347.8 30.5C353.7 30 359.3 29 365.2 28C371 27 377 26 382.8 26.5C388.7 27 394.3 29 397.2 30L400 31L400 0L397.2 0C394.3 0 388.7 0 382.8 0C377 0 371 0 365.2 0C359.3 0 353.7 0 347.8 0C342 0 336 0 330.2 0C324.3 0 318.7 0 313 0C307.3 0 301.7 0 295.8 0C290 0 284 0 278.2 0C272.3 0 266.7 0 260.8 0C255 0 249 0 243.2 0C237.3 0 231.7 0 226 0C220.3 0 214.7 0 208.8 0C203 0 197 0 191.2 0C185.3 0 179.7 0 174 0C168.3 0 162.7 0 156.8 0C151 0 145 0 139.2 0C133.3 0 127.7 0 121.8 0C116 0 110 0 104.2 0C98.3 0 92.7 0 87 0C81.3 0 75.7 0 69.8 0C64 0 58 0 52.2 0C46.3 0 40.7 0 34.8 0C29 0 23 0 17.2 0C11.3 0 5.7 0 2.8 0L0 0Z" fill="#481913"></path><path d="M0 19L2.8 19.7C5.7 20.3 11.3 21.7 17.2 20.5C23 19.3 29 15.7 34.8 13.8C40.7 12 46.3 12 52.2 12.5C58 13 64 14 69.8 16.3C75.7 18.7 81.3 22.3 87 21.7C92.7 21 98.3 16 104.2 13.7C110 11.3 116 11.7 121.8 11C127.7 10.3 133.3 8.7 139.2 9C145 9.3 151 11.7 156.8 12.7C162.7 13.7 168.3 13.3 174 16C179.7 18.7 185.3 24.3 191.2 25.3C197 26.3 203 22.7 208.8 21.5C214.7 20.3 220.3 21.7 226 23.8C231.7 26 237.3 29 243.2 28.3C249 27.7 255 23.3 260.8 20C266.7 16.7 272.3 14.3 278.2 14.2C284 14 290 16 295.8 17.5C301.7 19 307.3 20 313 20.3C318.7 20.7 324.3 20.3 330.2 22C336 23.7 342 27.3 347.8 27.3C353.7 27.3 359.3 23.7 365.2 22.3C371 21 377 22 382.8 21.7C388.7 21.3 394.3 19.7 397.2 18.8L400 18L400 0L397.2 0C394.3 0 388.7 0 382.8 0C377 0 371 0 365.2 0C359.3 0 353.7 0 347.8 0C342 0 336 0 330.2 0C324.3 0 318.7 0 313 0C307.3 0 301.7 0 295.8 0C290 0 284 0 278.2 0C272.3 0 266.7 0 260.8 0C255 0 249 0 243.2 0C237.3 0 231.7 0 226 0C220.3 0 214.7 0 208.8 0C203 0 197 0 191.2 0C185.3 0 179.7 0 174 0C168.3 0 162.7 0 156.8 0C151 0 145 0 139.2 0C133.3 0 127.7 0 121.8 0C116 0 110 0 104.2 0C98.3 0 92.7 0 87 0C81.3 0 75.7 0 69.8 0C64 0 58 0 52.2 0C46.3 0 40.7 0 34.8 0C29 0 23 0 17.2 0C11.3 0 5.7 0 2.8 0L0 0Z" fill="#391711"></path><path d="M0 20L2.8 18.8C5.7 17.7 11.3 15.3 17.2 15.3C23 15.3 29 17.7 34.8 17.8C40.7 18 46.3 16 52.2 15.3C58 14.7 64 15.3 69.8 17C75.7 18.7 81.3 21.3 87 19.8C92.7 18.3 98.3 12.7 104.2 9.5C110 6.3 116 5.7 121.8 6.7C127.7 7.7 133.3 10.3 139.2 10.5C145 10.7 151 8.3 156.8 7.7C162.7 7 168.3 8 174 7.8C179.7 7.7 185.3 6.3 191.2 8.8C197 11.3 203 17.7 208.8 18.3C214.7 19 220.3 14 226 11.7C231.7 9.3 237.3 9.7 243.2 9.8C249 10 255 10 260.8 12.2C266.7 14.3 272.3 18.7 278.2 18.7C284 18.7 290 14.3 295.8 12.5C301.7 10.7 307.3 11.3 313 12.5C318.7 13.7 324.3 15.3 330.2 16.2C336 17 342 17 347.8 15.7C353.7 14.3 359.3 11.7 365.2 12C371 12.3 377 15.7 382.8 15.2C388.7 14.7 394.3 10.3 397.2 8.2L400 6L400 0L397.2 0C394.3 0 388.7 0 382.8 0C377 0 371 0 365.2 0C359.3 0 353.7 0 347.8 0C342 0 336 0 330.2 0C324.3 0 318.7 0 313 0C307.3 0 301.7 0 295.8 0C290 0 284 0 278.2 0C272.3 0 266.7 0 260.8 0C255 0 249 0 243.2 0C237.3 0 231.7 0 226 0C220.3 0 214.7 0 208.8 0C203 0 197 0 191.2 0C185.3 0 179.7 0 174 0C168.3 0 162.7 0 156.8 0C151 0 145 0 139.2 0C133.3 0 127.7 0 121.8 0C116 0 110 0 104.2 0C98.3 0 92.7 0 87 0C81.3 0 75.7 0 69.8 0C64 0 58 0 52.2 0C46.3 0 40.7 0 34.8 0C29 0 23 0 17.2 0C11.3 0 5.7 0 2.8 0L0 0Z" fill="#2a140e"></path><path d="M0 12L2.8 12.2C5.7 12.3 11.3 12.7 17.2 11.7C23 10.7 29 8.3 34.8 8.3C40.7 8.3 46.3 10.7 52.2 12C58 13.3 64 13.7 69.8 13.7C75.7 13.7 81.3 13.3 87 11.8C92.7 10.3 98.3 7.7 104.2 7.3C110 7 116 9 121.8 9.7C127.7 10.3 133.3 9.7 139.2 8.5C145 7.3 151 5.7 156.8 6.7C162.7 7.7 168.3 11.3 174 12.3C179.7 13.3 185.3 11.7 191.2 11.5C197 11.3 203 12.7 208.8 13C214.7 13.3 220.3 12.7 226 12.5C231.7 12.3 237.3 12.7 243.2 12.7C249 12.7 255 12.3 260.8 10.7C266.7 9 272.3 6 278.2 6.7C284 7.3 290 11.7 295.8 13.3C301.7 15 307.3 14 313 12.8C318.7 11.7 324.3 10.3 330.2 9.3C336 8.3 342 7.7 347.8 8.5C353.7 9.3 359.3 11.7 365.2 12C371 12.3 377 10.7 382.8 10.2C388.7 9.7 394.3 10.3 397.2 10.7L400 11L400 0L397.2 0C394.3 0 388.7 0 382.8 0C377 0 371 0 365.2 0C359.3 0 353.7 0 347.8 0C342 0 336 0 330.2 0C324.3 0 318.7 0 313 0C307.3 0 301.7 0 295.8 0C290 0 284 0 278.2 0C272.3 0 266.7 0 260.8 0C255 0 249 0 243.2 0C237.3 0 231.7 0 226 0C220.3 0 214.7 0 208.8 0C203 0 197 0 191.2 0C185.3 0 179.7 0 174 0C168.3 0 162.7 0 156.8 0C151 0 145 0 139.2 0C133.3 0 127.7 0 121.8 0C116 0 110 0 104.2 0C98.3 0 92.7 0 87 0C81.3 0 75.7 0 69.8 0C64 0 58 0 52.2 0C46.3 0 40.7 0 34.8 0C29 0 23 0 17.2 0C11.3 0 5.7 0 2.8 0L0 0Z" fill="#1c0f0b"></path><path d="M0 7L2.8 6.3C5.7 5.7 11.3 4.3 17.2 3.7C23 3 29 3 34.8 4.2C40.7 5.3 46.3 7.7 52.2 8.8C58 10 64 10 69.8 8.8C75.7 7.7 81.3 5.3 87 4.8C92.7 4.3 98.3 5.7 104.2 6.7C110 7.7 116 8.3 121.8 8.8C127.7 9.3 133.3 9.7 139.2 9.8C145 10 151 10 156.8 9.3C162.7 8.7 168.3 7.3 174 6C179.7 4.7 185.3 3.3 191.2 4.2C197 5 203 8 208.8 9.3C214.7 10.7 220.3 10.3 226 10C231.7 9.7 237.3 9.3 243.2 8C249 6.7 255 4.3 260.8 4.7C266.7 5 272.3 8 278.2 9.5C284 11 290 11 295.8 10.5C301.7 10 307.3 9 313 7.7C318.7 6.3 324.3 4.7 330.2 3.8C336 3 342 3 347.8 3.5C353.7 4 359.3 5 365.2 6C371 7 377 8 382.8 7.3C388.7 6.7 394.3 4.3 397.2 3.2L400 2L400 0L397.2 0C394.3 0 388.7 0 382.8 0C377 0 371 0 365.2 0C359.3 0 353.7 0 347.8 0C342 0 336 0 330.2 0C324.3 0 318.7 0 313 0C307.3 0 301.7 0 295.8 0C290 0 284 0 278.2 0C272.3 0 266.7 0 260.8 0C255 0 249 0 243.2 0C237.3 0 231.7 0 226 0C220.3 0 214.7 0 208.8 0C203 0 197 0 191.2 0C185.3 0 179.7 0 174 0C168.3 0 162.7 0 156.8 0C151 0 145 0 139.2 0C133.3 0 127.7 0 121.8 0C116 0 110 0 104.2 0C98.3 0 92.7 0 87 0C81.3 0 75.7 0 69.8 0C64 0 58 0 52.2 0C46.3 0 40.7 0 34.8 0C29 0 23 0 17.2 0C11.3 0 5.7 0 2.8 0L0 0Z" fill="#080808"></path></svg>