<svg id="visual" viewBox="0 0 400 50" width="400" height="50" xmlns="http://www.w3.org/2000/svg" xmlns:xlink="http://www.w3.org/1999/xlink" version="1.1"><path d="M0 9L7.3 8.7C14.7 8.3 29.3 7.7 44.2 8C59 8.3 74 9.7 88.8 9.8C103.7 10 118.3 9 133.2 8.5C148 8 163 8 177.8 8.3C192.7 8.7 207.3 9.3 222.2 9.8C237 10.3 252 10.7 266.8 11.5C281.7 12.3 296.3 13.7 311.2 13.3C326 13 341 11 355.8 9.8C370.7 8.7 385.3 8.3 392.7 8.2L400 8L400 0L392.7 0C385.3 0 370.7 0 355.8 0C341 0 326 0 311.2 0C296.3 0 281.7 0 266.8 0C252 0 237 0 222.2 0C207.3 0 192.7 0 177.8 0C163 0 148 0 133.2 0C118.3 0 103.7 0 88.8 0C74 0 59 0 44.2 0C29.3 0 14.7 0 7.3 0L0 0Z" fill="#121212"></path><path d="M0 14L7.3 13.5C14.7 13 29.3 12 44.2 11.8C59 11.7 74 12.3 88.8 12C103.7 11.7 118.3 10.3 133.2 10.2C148 10 163 11 177.8 11.7C192.7 12.3 207.3 12.7 222.2 13.5C237 14.3 252 15.7 266.8 16.3C281.7 17 296.3 17 311.2 16.3C326 15.7 341 14.3 355.8 14C370.7 13.7 385.3 14.3 392.7 14.7L400 15L400 6L392.7 6.2C385.3 6.3 370.7 6.7 355.8 7.8C341 9 326 11 311.2 11.3C296.3 11.7 281.7 10.3 266.8 9.5C252 8.7 237 8.3 222.2 7.8C207.3 7.3 192.7 6.7 177.8 6.3C163 6 148 6 133.2 6.5C118.3 7 103.7 8 88.8 7.8C74 7.7 59 6.3 44.2 6C29.3 5.7 14.7 6.3 7.3 6.7L0 7Z" fill="#111111"></path><path d="M0 21L7.3 20.7C14.7 20.3 29.3 19.7 44.2 19.5C59 19.3 74 19.7 88.8 19C103.7 18.3 118.3 16.7 133.2 16.5C148 16.3 163 17.7 177.8 18.5C192.7 19.3 207.3 19.7 222.2 20.2C237 20.7 252 21.3 266.8 21.3C281.7 21.3 296.3 20.7 311.2 20.7C326 20.7 341 21.3 355.8 21.3C370.7 21.3 385.3 20.7 392.7 20.3L400 20L400 13L392.7 12.7C385.3 12.3 370.7 11.7 355.8 12C341 12.3 326 13.7 311.2 14.3C296.3 15 281.7 15 266.8 14.3C252 13.7 237 12.3 222.2 11.5C207.3 10.7 192.7 10.3 177.8 9.7C163 9 148 8 133.2 8.2C118.3 8.3 103.7 9.7 88.8 10C74 10.3 59 9.7 44.2 9.8C29.3 10 14.7 11 7.3 11.5L0 12Z" fill="#101010"></path><path d="M0 22L7.3 22.3C14.7 22.7 29.3 23.3 44.2 23.2C59 23 74 22 88.8 20.7C103.7 19.3 118.3 17.7 133.2 17.7C148 17.7 163 19.3 177.8 20C192.7 20.7 207.3 20.3 222.2 21.2C237 22 252 24 266.8 24.3C281.7 24.7 296.3 23.3 311.2 23C326 22.7 341 23.3 355.8 23.3C370.7 23.3 385.3 22.7 392.7 22.3L400 22L400 18L392.7 18.3C385.3 18.7 370.7 19.3 355.8 19.3C341 19.3 326 18.7 311.2 18.7C296.3 18.7 281.7 19.3 266.8 19.3C252 19.3 237 18.7 222.2 18.2C207.3 17.7 192.7 17.3 177.8 16.5C163 15.7 148 14.3 133.2 14.5C118.3 14.7 103.7 16.3 88.8 17C74 17.7 59 17.3 44.2 17.5C29.3 17.7 14.7 18.3 7.3 18.7L0 19Z" fill="#0f0f0f"></path><path d="M0 23L7.3 23.2C14.7 23.3 29.3 23.7 44.2 23.8C59 24 74 24 88.8 23.3C103.7 22.7 118.3 21.3 133.2 21C148 20.7 163 21.3 177.8 22.3C192.7 23.3 207.3 24.7 222.2 26.2C237 27.7 252 29.3 266.8 29C281.7 28.7 296.3 26.3 311.2 25.8C326 25.3 341 26.7 355.8 26.5C370.7 26.3 385.3 24.7 392.7 23.8L400 23L400 20L392.7 20.3C385.3 20.7 370.7 21.3 355.8 21.3C341 21.3 326 20.7 311.2 21C296.3 21.3 281.7 22.7 266.8 22.3C252 22 237 20 222.2 19.2C207.3 18.3 192.7 18.7 177.8 18C163 17.3 148 15.7 133.2 15.7C118.3 15.7 103.7 17.3 88.8 18.7C74 20 59 21 44.2 21.2C29.3 21.3 14.7 20.7 7.3 20.3L0 20Z" fill="#0e0e0e"></path><path d="M0 24L7.3 24.5C14.7 25 29.3 26 44.2 26.8C59 27.7 74 28.3 88.8 28.2C103.7 28 118.3 27 133.2 27C148 27 163 28 177.8 28.5C192.7 29 207.3 29 222.2 30.2C237 31.3 252 33.7 266.8 33.3C281.7 33 296.3 30 311.2 29.2C326 28.3 341 29.7 355.8 29.5C370.7 29.3 385.3 27.7 392.7 26.8L400 26L400 21L392.7 21.8C385.3 22.7 370.7 24.3 355.8 24.5C341 24.7 326 23.3 311.2 23.8C296.3 24.3 281.7 26.7 266.8 27C252 27.3 237 25.7 222.2 24.2C207.3 22.7 192.7 21.3 177.8 20.3C163 19.3 148 18.7 133.2 19C118.3 19.3 103.7 20.7 88.8 21.3C74 22 59 22 44.2 21.8C29.3 21.7 14.7 21.3 7.3 21.2L0 21Z" fill="#0d0d0d"></path><path d="M0 38L7.3 38.8C14.7 39.7 29.3 41.3 44.2 41.7C59 42 74 41 88.8 40.5C103.7 40 118.3 40 133.2 40.7C148 41.3 163 42.7 177.8 43.2C192.7 43.7 207.3 43.3 222.2 43.5C237 43.7 252 44.3 266.8 45C281.7 45.7 296.3 46.3 311.2 45.8C326 45.3 341 43.7 355.8 43.3C370.7 43 385.3 44 392.7 44.5L400 45L400 24L392.7 24.8C385.3 25.7 370.7 27.3 355.8 27.5C341 27.7 326 26.3 311.2 27.2C296.3 28 281.7 31 266.8 31.3C252 31.7 237 29.3 222.2 28.2C207.3 27 192.7 27 177.8 26.5C163 26 148 25 133.2 25C118.3 25 103.7 26 88.8 26.2C74 26.3 59 25.7 44.2 24.8C29.3 24 14.7 23 7.3 22.5L0 22Z" fill="#0b0b0b"></path><path d="M0 46L7.3 46C14.7 46 29.3 46 44.2 45.8C59 45.7 74 45.3 88.8 45.3C103.7 45.3 118.3 45.7 133.2 46.5C148 47.3 163 48.7 177.8 49C192.7 49.3 207.3 48.7 222.2 48.5C237 48.3 252 48.7 266.8 49C281.7 49.3 296.3 49.7 311.2 49.5C326 49.3 341 48.7 355.8 48.3C370.7 48 385.3 48 392.7 48L400 48L400 43L392.7 42.5C385.3 42 370.7 41 355.8 41.3C341 41.7 326 43.3 311.2 43.8C296.3 44.3 281.7 43.7 266.8 43C252 42.3 237 41.7 222.2 41.5C207.3 41.3 192.7 41.7 177.8 41.2C163 40.7 148 39.3 133.2 38.7C118.3 38 103.7 38 88.8 38.5C74 39 59 40 44.2 39.7C29.3 39.3 14.7 37.7 7.3 36.8L0 36Z" fill="#0a0a0a"></path><path d="M0 51L7.3 51C14.7 51 29.3 51 44.2 51C59 51 74 51 88.8 51C103.7 51 118.3 51 133.2 51C148 51 163 51 177.8 51C192.7 51 207.3 51 222.2 51C237 51 252 51 266.8 51C281.7 51 296.3 51 311.2 51C326 51 341 51 355.8 51C370.7 51 385.3 51 392.7 51L400 51L400 46L392.7 46C385.3 46 370.7 46 355.8 46.3C341 46.7 326 47.3 311.2 47.5C296.3 47.7 281.7 47.3 266.8 47C252 46.7 237 46.3 222.2 46.5C207.3 46.7 192.7 47.3 177.8 47C163 46.7 148 45.3 133.2 44.5C118.3 43.7 103.7 43.3 88.8 43.3C74 43.3 59 43.7 44.2 43.8C29.3 44 14.7 44 7.3 44L0 44Z" fill="#080808"></path></svg>