<svg id="visual" viewBox="0 0 1000 522" width="1000" height="522" xmlns="http://www.w3.org/2000/svg" xmlns:xlink="http://www.w3.org/1999/xlink" version="1.1"><rect x="0" y="0" width="1000" height="522" fill="#181818"></rect><path d="M288 0L285 0L285 58L438 58L438 116L471 116L471 174L468 174L468 232L482 232L482 290L338 290L338 348L429 348L429 406L433 406L433 464L462 464L462 522L0 522L0 464L0 464L0 406L0 406L0 348L0 348L0 290L0 290L0 232L0 232L0 174L0 174L0 116L0 116L0 58L0 58L0 0L0 0Z" fill="#c53030"></path><path d="M295 0L385 0L385 58L309 58L309 116L304 116L304 174L387 174L387 232L419 232L419 290L404 290L404 348L309 348L309 406L321 406L321 464L327 464L327 522L0 522L0 464L0 464L0 406L0 406L0 348L0 348L0 290L0 290L0 232L0 232L0 174L0 174L0 116L0 116L0 58L0 58L0 0L0 0Z" fill="#a52e2b"></path><path d="M259 0L253 0L253 58L209 58L209 116L199 116L199 174L347 174L347 232L278 232L278 290L202 290L202 348L339 348L339 406L207 406L207 464L229 464L229 522L0 522L0 464L0 464L0 406L0 406L0 348L0 348L0 290L0 290L0 232L0 232L0 174L0 174L0 116L0 116L0 58L0 58L0 0L0 0Z" fill="#852a26"></path><path d="M217 0L170 0L170 58L283 58L283 116L194 116L194 174L263 174L263 232L163 232L163 290L225 290L225 348L206 348L206 406L164 406L164 464L207 464L207 522L0 522L0 464L0 464L0 406L0 406L0 348L0 348L0 290L0 290L0 232L0 232L0 174L0 174L0 116L0 116L0 58L0 58L0 0L0 0Z" fill="#672621"></path><path d="M219 0L203 0L203 58L129 58L129 116L220 116L220 174L191 174L191 232L168 232L168 290L239 290L239 348L130 348L130 406L178 406L178 464L135 464L135 522L0 522L0 464L0 464L0 406L0 406L0 348L0 348L0 290L0 290L0 232L0 232L0 174L0 174L0 116L0 116L0 58L0 58L0 0L0 0Z" fill="#4a211c"></path><path d="M125 0L174 0L174 58L138 58L138 116L67 116L67 174L120 174L120 232L125 232L125 290L110 290L110 348L82 348L82 406L150 406L150 464L169 464L169 522L0 522L0 464L0 464L0 406L0 406L0 348L0 348L0 290L0 290L0 232L0 232L0 174L0 174L0 116L0 116L0 58L0 58L0 0L0 0Z" fill="#2e1a17"></path><path d="M77 0L59 0L59 58L85 58L85 116L23 116L23 174L83 174L83 232L109 232L109 290L91 290L91 348L66 348L66 406L75 406L75 464L44 464L44 522L0 522L0 464L0 464L0 406L0 406L0 348L0 348L0 290L0 290L0 232L0 232L0 174L0 174L0 116L0 116L0 58L0 58L0 0L0 0Z" fill="#121212"></path></svg>