<svg id="visual" viewBox="0 0 777 582" width="777" height="582" xmlns="http://www.w3.org/2000/svg" xmlns:xlink="http://www.w3.org/1999/xlink" version="1.1"><rect x="0" y="0" width="777" height="582" fill="#080808"></rect><path d="M0 447L60 374L120 399L179 455L239 389L299 428L359 401L418 447L478 398L538 413L598 397L657 445L717 394L777 460L777 583L717 583L657 583L598 583L538 583L478 583L418 583L359 583L299 583L239 583L179 583L120 583L60 583L0 583Z" fill="#c53030"></path><path d="M0 399L60 470L120 460L179 405L239 419L299 423L359 426L418 431L478 449L538 412L598 429L657 395L717 425L777 441L777 583L717 583L657 583L598 583L538 583L478 583L418 583L359 583L299 583L239 583L179 583L120 583L60 583L0 583Z" fill="#b62b2d"></path><path d="M0 420L60 407L120 478L179 444L239 473L299 457L359 459L418 410L478 415L538 479L598 473L657 422L717 408L777 430L777 583L717 583L657 583L598 583L538 583L478 583L418 583L359 583L299 583L239 583L179 583L120 583L60 583L0 583Z" fill="#a7262a"></path><path d="M0 488L60 478L120 433L179 492L239 484L299 422L359 447L418 487L478 444L538 483L598 473L657 421L717 449L777 473L777 583L717 583L657 583L598 583L538 583L478 583L418 583L359 583L299 583L239 583L179 583L120 583L60 583L0 583Z" fill="#992127"></path><path d="M0 449L60 477L120 438L179 443L239 499L299 461L359 459L418 452L478 448L538 500L598 462L657 471L717 435L777 449L777 583L717 583L657 583L598 583L538 583L478 583L418 583L359 583L299 583L239 583L179 583L120 583L60 583L0 583Z" fill="#8a1c24"></path><path d="M0 501L60 479L120 475L179 482L239 462L299 488L359 509L418 484L478 472L538 505L598 472L657 454L717 495L777 476L777 583L717 583L657 583L598 583L538 583L478 583L418 583L359 583L299 583L239 583L179 583L120 583L60 583L0 583Z" fill="#7c1821"></path><path d="M0 498L60 475L120 517L179 514L239 490L299 498L359 500L418 469L478 477L538 506L598 483L657 502L717 480L777 487L777 583L717 583L657 583L598 583L538 583L478 583L418 583L359 583L299 583L239 583L179 583L120 583L60 583L0 583Z" fill="#6e141d"></path><path d="M0 526L60 529L120 487L179 488L239 516L299 523L359 491L418 514L478 490L538 494L598 521L657 485L717 520L777 531L777 583L717 583L657 583L598 583L538 583L478 583L418 583L359 583L299 583L239 583L179 583L120 583L60 583L0 583Z" fill="#60101a"></path><path d="M0 537L60 535L120 511L179 504L239 529L299 519L359 534L418 529L478 519L538 509L598 530L657 541L717 539L777 523L777 583L717 583L657 583L598 583L538 583L478 583L418 583L359 583L299 583L239 583L179 583L120 583L60 583L0 583Z" fill="#530d16"></path><path d="M0 535L60 535L120 532L179 534L239 550L299 534L359 525L418 526L478 539L538 531L598 553L657 535L717 523L777 547L777 583L717 583L657 583L598 583L538 583L478 583L418 583L359 583L299 583L239 583L179 583L120 583L60 583L0 583Z" fill="#460912"></path><path d="M0 539L60 551L120 542L179 544L239 554L299 559L359 554L418 557L478 544L538 558L598 556L657 547L717 546L777 552L777 583L717 583L657 583L598 583L538 583L478 583L418 583L359 583L299 583L239 583L179 583L120 583L60 583L0 583Z" fill="#39060b"></path><path d="M0 563L60 557L120 555L179 575L239 551L299 568L359 564L418 551L478 555L538 565L598 572L657 570L717 558L777 567L777 583L717 583L657 583L598 583L538 583L478 583L418 583L359 583L299 583L239 583L179 583L120 583L60 583L0 583Z" fill="#2e0303"></path></svg>