<svg id="visual" viewBox="0 0 400 100" width="400" height="100" xmlns="http://www.w3.org/2000/svg" xmlns:xlink="http://www.w3.org/1999/xlink" version="1.1"><rect x="0" y="0" width="400" height="100" fill="#121212"></rect><path d="M0 59L2.8 59.7C5.7 60.3 11.3 61.7 17.2 59.7C23 57.7 29 52.3 34.8 50.2C40.7 48 46.3 49 52.2 48.3C58 47.7 64 45.3 69.8 43.3C75.7 41.3 81.3 39.7 87 38.3C92.7 37 98.3 36 104.2 37.3C110 38.7 116 42.3 121.8 44.7C127.7 47 133.3 48 139.2 46C145 44 151 39 156.8 39.2C162.7 39.3 168.3 44.7 174 48.3C179.7 52 185.3 54 191.2 56.8C197 59.7 203 63.3 208.8 62.2C214.7 61 220.3 55 226 52C231.7 49 237.3 49 243.2 48.7C249 48.3 255 47.7 260.8 45.7C266.7 43.7 272.3 40.3 278.2 39.2C284 38 290 39 295.8 39.5C301.7 40 307.3 40 313 42.2C318.7 44.3 324.3 48.7 330.2 53.2C336 57.7 342 62.3 347.8 60C353.7 57.7 359.3 48.3 365.2 47.5C371 46.7 377 54.3 382.8 56.8C388.7 59.3 394.3 56.7 397.2 55.3L400 54L400 101L397.2 101C394.3 101 388.7 101 382.8 101C377 101 371 101 365.2 101C359.3 101 353.7 101 347.8 101C342 101 336 101 330.2 101C324.3 101 318.7 101 313 101C307.3 101 301.7 101 295.8 101C290 101 284 101 278.2 101C272.3 101 266.7 101 260.8 101C255 101 249 101 243.2 101C237.3 101 231.7 101 226 101C220.3 101 214.7 101 208.8 101C203 101 197 101 191.2 101C185.3 101 179.7 101 174 101C168.3 101 162.7 101 156.8 101C151 101 145 101 139.2 101C133.3 101 127.7 101 121.8 101C116 101 110 101 104.2 101C98.3 101 92.7 101 87 101C81.3 101 75.7 101 69.8 101C64 101 58 101 52.2 101C46.3 101 40.7 101 34.8 101C29 101 23 101 17.2 101C11.3 101 5.7 101 2.8 101L0 101Z" fill="#c53030"></path><path d="M0 58L2.8 57C5.7 56 11.3 54 17.2 56C23 58 29 64 34.8 63C40.7 62 46.3 54 52.2 52C58 50 64 54 69.8 54.7C75.7 55.3 81.3 52.7 87 51.7C92.7 50.7 98.3 51.3 104.2 50.7C110 50 116 48 121.8 46.5C127.7 45 133.3 44 139.2 48C145 52 151 61 156.8 62.5C162.7 64 168.3 58 174 53.3C179.7 48.7 185.3 45.3 191.2 44.7C197 44 203 46 208.8 46.3C214.7 46.7 220.3 45.3 226 46.5C231.7 47.7 237.3 51.3 243.2 52.5C249 53.7 255 52.3 260.8 53.8C266.7 55.3 272.3 59.7 278.2 60.8C284 62 290 60 295.8 58.8C301.7 57.7 307.3 57.3 313 59.8C318.7 62.3 324.3 67.7 330.2 69.3C336 71 342 69 347.8 66.7C353.7 64.3 359.3 61.7 365.2 58.3C371 55 377 51 382.8 52.8C388.7 54.7 394.3 62.3 397.2 66.2L400 70L400 101L397.2 101C394.3 101 388.7 101 382.8 101C377 101 371 101 365.2 101C359.3 101 353.7 101 347.8 101C342 101 336 101 330.2 101C324.3 101 318.7 101 313 101C307.3 101 301.7 101 295.8 101C290 101 284 101 278.2 101C272.3 101 266.7 101 260.8 101C255 101 249 101 243.2 101C237.3 101 231.7 101 226 101C220.3 101 214.7 101 208.8 101C203 101 197 101 191.2 101C185.3 101 179.7 101 174 101C168.3 101 162.7 101 156.8 101C151 101 145 101 139.2 101C133.3 101 127.7 101 121.8 101C116 101 110 101 104.2 101C98.3 101 92.7 101 87 101C81.3 101 75.7 101 69.8 101C64 101 58 101 52.2 101C46.3 101 40.7 101 34.8 101C29 101 23 101 17.2 101C11.3 101 5.7 101 2.8 101L0 101Z" fill="#a32c2a"></path><path d="M0 75L2.8 73.5C5.7 72 11.3 69 17.2 69C23 69 29 72 34.8 71.3C40.7 70.7 46.3 66.3 52.2 62.8C58 59.3 64 56.7 69.8 58.8C75.7 61 81.3 68 87 70.5C92.7 73 98.3 71 104.2 67.7C110 64.3 116 59.7 121.8 58.3C127.7 57 133.3 59 139.2 61.7C145 64.3 151 67.7 156.8 69.2C162.7 70.7 168.3 70.3 174 71.3C179.7 72.3 185.3 74.7 191.2 75.3C197 76 203 75 208.8 72.7C214.7 70.3 220.3 66.7 226 67.3C231.7 68 237.3 73 243.2 75.3C249 77.7 255 77.3 260.8 75.7C266.7 74 272.3 71 278.2 70.7C284 70.3 290 72.7 295.8 71.7C301.7 70.7 307.3 66.3 313 66.5C318.7 66.7 324.3 71.3 330.2 70.3C336 69.3 342 62.7 347.8 61C353.7 59.3 359.3 62.7 365.2 63.8C371 65 377 64 382.8 64.2C388.7 64.3 394.3 65.7 397.2 66.3L400 67L400 101L397.2 101C394.3 101 388.7 101 382.8 101C377 101 371 101 365.2 101C359.3 101 353.7 101 347.8 101C342 101 336 101 330.2 101C324.3 101 318.7 101 313 101C307.3 101 301.7 101 295.8 101C290 101 284 101 278.2 101C272.3 101 266.7 101 260.8 101C255 101 249 101 243.2 101C237.3 101 231.7 101 226 101C220.3 101 214.7 101 208.8 101C203 101 197 101 191.2 101C185.3 101 179.7 101 174 101C168.3 101 162.7 101 156.8 101C151 101 145 101 139.2 101C133.3 101 127.7 101 121.8 101C116 101 110 101 104.2 101C98.3 101 92.7 101 87 101C81.3 101 75.7 101 69.8 101C64 101 58 101 52.2 101C46.3 101 40.7 101 34.8 101C29 101 23 101 17.2 101C11.3 101 5.7 101 2.8 101L0 101Z" fill="#822724"></path><path d="M0 80L2.8 79.8C5.7 79.7 11.3 79.3 17.2 77.2C23 75 29 71 34.8 69.8C40.7 68.7 46.3 70.3 52.2 71C58 71.7 64 71.3 69.8 72.5C75.7 73.7 81.3 76.3 87 75C92.7 73.7 98.3 68.3 104.2 68.8C110 69.3 116 75.7 121.8 75.8C127.7 76 133.3 70 139.2 68C145 66 151 68 156.8 70.5C162.7 73 168.3 76 174 78.2C179.7 80.3 185.3 81.7 191.2 80.5C197 79.3 203 75.7 208.8 75.3C214.7 75 220.3 78 226 78.8C231.7 79.7 237.3 78.3 243.2 76.7C249 75 255 73 260.8 70.5C266.7 68 272.3 65 278.2 63.8C284 62.7 290 63.3 295.8 65.5C301.7 67.7 307.3 71.3 313 73.2C318.7 75 324.3 75 330.2 73C336 71 342 67 347.8 67.8C353.7 68.7 359.3 74.3 365.2 76.5C371 78.7 377 77.3 382.8 74.2C388.7 71 394.3 66 397.2 63.5L400 61L400 101L397.2 101C394.3 101 388.7 101 382.8 101C377 101 371 101 365.2 101C359.3 101 353.7 101 347.8 101C342 101 336 101 330.2 101C324.3 101 318.7 101 313 101C307.3 101 301.7 101 295.8 101C290 101 284 101 278.2 101C272.3 101 266.7 101 260.8 101C255 101 249 101 243.2 101C237.3 101 231.7 101 226 101C220.3 101 214.7 101 208.8 101C203 101 197 101 191.2 101C185.3 101 179.7 101 174 101C168.3 101 162.7 101 156.8 101C151 101 145 101 139.2 101C133.3 101 127.7 101 121.8 101C116 101 110 101 104.2 101C98.3 101 92.7 101 87 101C81.3 101 75.7 101 69.8 101C64 101 58 101 52.2 101C46.3 101 40.7 101 34.8 101C29 101 23 101 17.2 101C11.3 101 5.7 101 2.8 101L0 101Z" fill="#63221e"></path><path d="M0 80L2.8 80.7C5.7 81.3 11.3 82.7 17.2 81.3C23 80 29 76 34.8 74.7C40.7 73.3 46.3 74.7 52.2 74.8C58 75 64 74 69.8 74.7C75.7 75.3 81.3 77.7 87 79.2C92.7 80.7 98.3 81.3 104.2 81.3C110 81.3 116 80.7 121.8 80.7C127.7 80.7 133.3 81.3 139.2 81.2C145 81 151 80 156.8 78.2C162.7 76.3 168.3 73.7 174 73.5C179.7 73.3 185.3 75.7 191.2 77.2C197 78.7 203 79.3 208.8 79.3C214.7 79.3 220.3 78.7 226 77.3C231.7 76 237.3 74 243.2 75.5C249 77 255 82 260.8 83.2C266.7 84.3 272.3 81.7 278.2 80.7C284 79.7 290 80.3 295.8 80.7C301.7 81 307.3 81 313 80.2C318.7 79.3 324.3 77.7 330.2 77.5C336 77.3 342 78.7 347.8 77.8C353.7 77 359.3 74 365.2 72.3C371 70.7 377 70.3 382.8 72.2C388.7 74 394.3 78 397.2 80L400 82L400 101L397.2 101C394.3 101 388.7 101 382.8 101C377 101 371 101 365.2 101C359.3 101 353.7 101 347.8 101C342 101 336 101 330.2 101C324.3 101 318.7 101 313 101C307.3 101 301.7 101 295.8 101C290 101 284 101 278.2 101C272.3 101 266.7 101 260.8 101C255 101 249 101 243.2 101C237.3 101 231.7 101 226 101C220.3 101 214.7 101 208.8 101C203 101 197 101 191.2 101C185.3 101 179.7 101 174 101C168.3 101 162.7 101 156.8 101C151 101 145 101 139.2 101C133.3 101 127.7 101 121.8 101C116 101 110 101 104.2 101C98.3 101 92.7 101 87 101C81.3 101 75.7 101 69.8 101C64 101 58 101 52.2 101C46.3 101 40.7 101 34.8 101C29 101 23 101 17.2 101C11.3 101 5.7 101 2.8 101L0 101Z" fill="#451c18"></path><path d="M0 82L2.8 82.2C5.7 82.3 11.3 82.7 17.2 84C23 85.3 29 87.7 34.8 88.2C40.7 88.7 46.3 87.3 52.2 87.3C58 87.3 64 88.7 69.8 87.7C75.7 86.7 81.3 83.3 87 83C92.7 82.7 98.3 85.3 104.2 86C110 86.7 116 85.3 121.8 85.8C127.7 86.3 133.3 88.7 139.2 89.2C145 89.7 151 88.3 156.8 88.3C162.7 88.3 168.3 89.7 174 89.8C179.7 90 185.3 89 191.2 87C197 85 203 82 208.8 81.2C214.7 80.3 220.3 81.7 226 82.7C231.7 83.7 237.3 84.3 243.2 83.7C249 83 255 81 260.8 80.5C266.7 80 272.3 81 278.2 82.5C284 84 290 86 295.8 85.8C301.7 85.7 307.3 83.3 313 82C318.7 80.7 324.3 80.3 330.2 79.8C336 79.3 342 78.7 347.8 80.5C353.7 82.3 359.3 86.7 365.2 86.7C371 86.7 377 82.3 382.8 81.2C388.7 80 394.3 82 397.2 83L400 84L400 101L397.2 101C394.3 101 388.7 101 382.8 101C377 101 371 101 365.2 101C359.3 101 353.7 101 347.8 101C342 101 336 101 330.2 101C324.3 101 318.7 101 313 101C307.3 101 301.7 101 295.8 101C290 101 284 101 278.2 101C272.3 101 266.7 101 260.8 101C255 101 249 101 243.2 101C237.3 101 231.7 101 226 101C220.3 101 214.7 101 208.8 101C203 101 197 101 191.2 101C185.3 101 179.7 101 174 101C168.3 101 162.7 101 156.8 101C151 101 145 101 139.2 101C133.3 101 127.7 101 121.8 101C116 101 110 101 104.2 101C98.3 101 92.7 101 87 101C81.3 101 75.7 101 69.8 101C64 101 58 101 52.2 101C46.3 101 40.7 101 34.8 101C29 101 23 101 17.2 101C11.3 101 5.7 101 2.8 101L0 101Z" fill="#291512"></path><path d="M0 97L2.8 96.2C5.7 95.3 11.3 93.7 17.2 92C23 90.3 29 88.7 34.8 89.2C40.7 89.7 46.3 92.3 52.2 92.7C58 93 64 91 69.8 89.8C75.7 88.7 81.3 88.3 87 88C92.7 87.7 98.3 87.3 104.2 88.3C110 89.3 116 91.7 121.8 92.3C127.7 93 133.3 92 139.2 90.8C145 89.7 151 88.3 156.8 89C162.7 89.7 168.3 92.3 174 93.8C179.7 95.3 185.3 95.7 191.2 95C197 94.3 203 92.7 208.8 91.7C214.7 90.7 220.3 90.3 226 89.3C231.7 88.3 237.3 86.7 243.2 87.7C249 88.7 255 92.3 260.8 94.3C266.7 96.3 272.3 96.7 278.2 94.8C284 93 290 89 295.8 86.8C301.7 84.7 307.3 84.3 313 84.3C318.7 84.3 324.3 84.7 330.2 85.5C336 86.3 342 87.7 347.8 89.5C353.7 91.3 359.3 93.7 365.2 94.8C371 96 377 96 382.8 94.5C388.7 93 394.3 90 397.2 88.5L400 87L400 101L397.2 101C394.3 101 388.7 101 382.8 101C377 101 371 101 365.2 101C359.3 101 353.7 101 347.8 101C342 101 336 101 330.2 101C324.3 101 318.7 101 313 101C307.3 101 301.7 101 295.8 101C290 101 284 101 278.2 101C272.3 101 266.7 101 260.8 101C255 101 249 101 243.2 101C237.3 101 231.7 101 226 101C220.3 101 214.7 101 208.8 101C203 101 197 101 191.2 101C185.3 101 179.7 101 174 101C168.3 101 162.7 101 156.8 101C151 101 145 101 139.2 101C133.3 101 127.7 101 121.8 101C116 101 110 101 104.2 101C98.3 101 92.7 101 87 101C81.3 101 75.7 101 69.8 101C64 101 58 101 52.2 101C46.3 101 40.7 101 34.8 101C29 101 23 101 17.2 101C11.3 101 5.7 101 2.8 101L0 101Z" fill="#080808"></path></svg>